<?xml version="1.0" encoding="UTF-8" standalone="no"?>
<!-- Created with Inkscape (http://www.inkscape.org/) -->

<svg
   xmlns:dc="http://purl.org/dc/elements/1.1/"
   xmlns:cc="http://creativecommons.org/ns#"
   xmlns:rdf="http://www.w3.org/1999/02/22-rdf-syntax-ns#"
   xmlns:svg="http://www.w3.org/2000/svg"
   xmlns="http://www.w3.org/2000/svg"
   xmlns:sodipodi="http://sodipodi.sourceforge.net/DTD/sodipodi-0.dtd"
   xmlns:inkscape="http://www.inkscape.org/namespaces/inkscape"
   width="210mm"
   height="297mm"
   viewBox="0 0 744.09448819 1052.3622047"
   id="svg2"
   version="1.1"
   inkscape:version="0.91 r13725"
   sodipodi:docname="ld35.svg">
  <defs
     id="defs4" />
  <sodipodi:namedview
     id="base"
     pagecolor="#ffffff"
     bordercolor="#666666"
     borderopacity="1.0"
     inkscape:pageopacity="0.0"
     inkscape:pageshadow="2"
     inkscape:zoom="22.627417"
     inkscape:cx="1711.5596"
     inkscape:cy="-1737.8237"
     inkscape:document-units="px"
     inkscape:current-layer="layer1"
     showgrid="false"
     showguides="true"
     inkscape:guide-bbox="true"
     inkscape:window-width="1920"
     inkscape:window-height="1017"
     inkscape:window-x="-8"
     inkscape:window-y="-8"
     inkscape:window-maximized="1">
    <sodipodi:guide
       position="-978.83782,-462.1448"
       orientation="1,0"
       id="guide4167" />
    <sodipodi:guide
       position="-800.5459,-443.45698"
       orientation="1,0"
       id="guide4169" />
  </sodipodi:namedview>
  <metadata
     id="metadata7">
    <rdf:RDF>
      <cc:Work
         rdf:about="">
        <dc:format>image/svg+xml</dc:format>
        <dc:type
           rdf:resource="http://purl.org/dc/dcmitype/StillImage" />
        <dc:title></dc:title>
      </cc:Work>
    </rdf:RDF>
  </metadata>
  <g
     inkscape:label="Layer 1"
     inkscape:groupmode="layer"
     id="layer1">
    <path
       style="fill:#1a1a1a;fill-opacity:1;stroke:none;stroke-width:1;stroke-miterlimit:4;stroke-dasharray:none"
       d="m 1599.1746,2889.0548 a 10.25,10.25 0 0 0 -10.25,10.25 10.25,10.25 0 0 0 0.047,0.9043 l -0.014,0 0,9.6777 32.2617,0 6.1875,0 0,-6.8203 -0.01,0 a 7,7 0 0 0 0.023,-0.4551 7,7 0 0 0 -4.5703,-6.5566 l -0.019,-0.01 a 7,7 0 0 0 -0.627,-0.1972 l -19.0234,-5.9805 a 10.25,10.25 0 0 0 -1.8692,-0.5859 l -0.1152,-0.037 0,0.01 a 10.25,10.25 0 0 0 -2.0273,-0.2012 z"
       id="path4871-2"
       inkscape:connector-curvature="0" />
    <rect
       style="fill:#ffe6d5;fill-opacity:1;stroke:none;stroke-width:1;stroke-miterlimit:4;stroke-dasharray:none"
       id="rect4161-5"
       width="2751.4285"
       height="425.71429"
       x="-1091.4286"
       y="1340.9336" />
    <rect
       style="fill:#ff8080;fill-opacity:1;stroke:#000000;stroke-width:1.0008167;stroke-miterlimit:4;stroke-dasharray:none"
       id="rect4136-6"
       width="175.9948"
       height="140.59209"
       x="288.85263"
       y="502.33051" />
    <path
       style="fill:#ffd5d5;fill-rule:evenodd;stroke:#000000;stroke-width:1px;stroke-linecap:butt;stroke-linejoin:miter;stroke-opacity:1"
       d="m 289.28571,502.71935 -59.46428,-59.46429 175.89286,0 58.66071,58.66072 z"
       id="path4153"
       inkscape:connector-curvature="0" />
    <path
       style="fill:#ffaaaa;fill-rule:evenodd;stroke:#000000;stroke-width:1px;stroke-linecap:butt;stroke-linejoin:miter;stroke-opacity:1"
       d="m 289.34557,502.71295 -59.45695,-59.45695 0,140.39542 58.54939,58.54939 z"
       id="path4155"
       inkscape:connector-curvature="0" />
    <rect
       style="fill:none;fill-opacity:1;stroke:#000000;stroke-width:0.77977186;stroke-miterlimit:4;stroke-dasharray:none"
       id="rect4157"
       width="241.1416"
       height="206.7964"
       x="226.66913"
       y="439.08948"
       inkscape:export-xdpi="117.23"
       inkscape:export-ydpi="117.23" />
    <rect
       style="fill:#999999;fill-opacity:1;stroke:none;stroke-width:1;stroke-miterlimit:4;stroke-dasharray:none"
       id="rect4159"
       width="161.6244"
       height="161.6244"
       x="329.81482"
       y="848.81647"
       inkscape:export-xdpi="55.684666"
       inkscape:export-ydpi="55.684666" />
    <path
       style="fill:#ff9955;fill-opacity:1;stroke:none;stroke-width:1;stroke-miterlimit:4;stroke-dasharray:none"
       d="M -949.35547 1344.0195 L -949.35547 1417.5977 A 88.647469 89.287498 0 0 1 -947.69531 1417.5391 A 88.647469 89.287498 0 0 1 -859.04883 1506.8262 A 88.647469 89.287498 0 0 1 -859.26758 1511.2441 L -859.26758 1758.2109 L -816.11523 1758.2109 L -816.11523 1513.1914 A 88.647469 89.287498 0 0 1 -816.34375 1506.8262 A 88.647469 89.287498 0 0 1 -727.69531 1417.5391 A 88.647469 89.287498 0 0 1 -639.04883 1506.8262 A 88.647469 89.287498 0 0 1 -639.26758 1511.2441 L -639.26758 1758.2109 L -594.11523 1758.2109 L -594.11523 1513.1914 A 88.647469 89.287498 0 0 1 -594.34375 1506.8262 A 88.647469 89.287498 0 0 1 -505.69531 1417.5391 A 88.647469 89.287498 0 0 1 -417.04883 1506.8262 A 88.647469 89.287498 0 0 1 -417.26758 1511.2441 L -417.26758 1758.2109 L -374.11523 1758.2109 L -374.11523 1513.1914 A 88.647469 89.287498 0 0 1 -374.34375 1506.8262 A 88.647469 89.287498 0 0 1 -285.69531 1417.5391 A 88.647469 89.287498 0 0 1 -197.04883 1506.8262 A 88.647469 89.287498 0 0 1 -197.26758 1511.2441 L -197.26758 1758.2109 L -154.11523 1758.2109 L -154.11523 1513.1914 A 88.647469 89.287498 0 0 1 -154.34375 1506.8262 A 88.647469 89.287498 0 0 1 -65.695312 1417.5391 A 88.647469 89.287498 0 0 1 22.951172 1506.8262 A 88.647469 89.287498 0 0 1 22.732422 1511.2441 L 22.732422 1758.2109 L 65.884766 1758.2109 L 65.884766 1513.1914 A 88.647469 89.287498 0 0 1 65.65625 1506.8262 A 88.647469 89.287498 0 0 1 154.30469 1417.5391 A 88.647469 89.287498 0 0 1 242.95117 1506.8262 A 88.647469 89.287498 0 0 1 242.73242 1511.2441 L 242.73242 1758.2109 L 287.88477 1758.2109 L 287.88477 1513.1914 A 88.647469 89.287498 0 0 1 287.65625 1506.8262 A 88.647469 89.287498 0 0 1 376.30469 1417.5391 A 88.647469 89.287498 0 0 1 464.95117 1506.8262 A 88.647469 89.287498 0 0 1 464.73242 1511.2441 L 464.73242 1758.2109 L 507.88477 1758.2109 L 507.88477 1513.1914 A 88.647469 89.287498 0 0 1 507.65625 1506.8262 A 88.647469 89.287498 0 0 1 596.30469 1417.5391 A 88.647469 89.287498 0 0 1 684.95117 1506.8262 A 88.647469 89.287498 0 0 1 684.73242 1511.2441 L 684.73242 1758.2109 L 727.88477 1758.2109 L 727.88477 1513.1914 A 88.647469 89.287498 0 0 1 727.65625 1506.8262 A 88.647469 89.287498 0 0 1 810.64453 1417.7422 L 810.64453 1344.0195 L -949.35547 1344.0195 z "
       id="rect4161" />
    <path
       inkscape:connector-curvature="0"
       style="fill:#ff7f2a;fill-opacity:1;stroke:none;stroke-width:1;stroke-miterlimit:4;stroke-dasharray:none"
       d="m -949.35547,2066.0199 0,73.5782 a 88.647469,89.287498 0 0 1 1.66016,-0.059 88.647469,89.287498 0 0 1 88.64648,89.2871 88.647469,89.287498 0 0 1 -0.21875,4.4179 l 0,246.9668 43.15235,0 0,-245.0195 a 88.647469,89.287498 0 0 1 -0.22852,-6.3652 88.647469,89.287498 0 0 1 88.64844,-89.2871 88.647469,89.287498 0 0 1 88.64648,89.2871 88.647469,89.287498 0 0 1 -0.21875,4.4179 l 0,246.9668 45.15235,0 0,-245.0195 a 88.647469,89.287498 0 0 1 -0.22852,-6.3652 88.647469,89.287498 0 0 1 88.64844,-89.2871 88.647469,89.287498 0 0 1 88.64648,89.2871 88.647469,89.287498 0 0 1 -0.21875,4.4179 l 0,246.9668 43.15235,0 0,-245.0195 a 88.647469,89.287498 0 0 1 -0.22852,-6.3652 88.647469,89.287498 0 0 1 88.64844,-89.2871 88.647469,89.287498 0 0 1 88.64648,89.2871 88.647469,89.287498 0 0 1 -0.21875,4.4179 l 0,246.9668 43.15235,0 0,-245.0195 a 88.647469,89.287498 0 0 1 -0.22852,-6.3652 88.647469,89.287498 0 0 1 88.64844,-89.2871 88.647469,89.287498 0 0 1 88.64648,89.2871 88.647469,89.287498 0 0 1 -0.21875,4.4179 l 0,246.9668 43.15231,0 0,-245.0195 a 88.647469,89.287498 0 0 1 -0.2285,-6.3652 88.647469,89.287498 0 0 1 88.6485,-89.2871 88.647469,89.287498 0 0 1 88.6464,89.2871 88.647469,89.287498 0 0 1 -0.2187,4.4179 l 0,246.9668 45.1523,0 0,-245.0195 a 88.647469,89.287498 0 0 1 -0.2285,-6.3652 88.647469,89.287498 0 0 1 88.6485,-89.2871 88.647469,89.287498 0 0 1 88.6464,89.2871 88.647469,89.287498 0 0 1 -0.2187,4.4179 l 0,246.9668 43.1523,0 0,-245.0195 a 88.647469,89.287498 0 0 1 -0.2285,-6.3652 88.647469,89.287498 0 0 1 88.6485,-89.2871 88.647469,89.287498 0 0 1 88.6464,89.2871 88.647469,89.287498 0 0 1 -0.2187,4.4179 l 0,246.9668 43.1523,0 0,-245.0195 a 88.647469,89.287498 0 0 1 -0.2285,-6.3652 88.647469,89.287498 0 0 1 82.9883,-89.084 l 0,-73.7227 -1760,0 z"
       id="rect4161-8"
       inkscape:export-xdpi="217.28999"
       inkscape:export-ydpi="217.28999" />
    <rect
       style="fill:#aa4400;fill-opacity:1;stroke:none;stroke-width:1;stroke-miterlimit:4;stroke-dasharray:none"
       id="rect4332"
       width="1760"
       height="11"
       x="-949"
       y="2568.3623"
       inkscape:export-xdpi="217.28999"
       inkscape:export-ydpi="217.28999" />
    <rect
       style="fill:#aa4400;fill-opacity:1;stroke:none;stroke-width:1;stroke-miterlimit:4;stroke-dasharray:none"
       id="rect4334-2"
       width="6.25"
       height="59.75"
       x="-900.25"
       y="2578.8623"
       inkscape:export-xdpi="217.28999"
       inkscape:export-ydpi="217.28999" />
    <rect
       style="fill:#aa4400;fill-opacity:1;stroke:none;stroke-width:1;stroke-miterlimit:4;stroke-dasharray:none"
       id="rect4334-2-5"
       width="6.25"
       height="59.75"
       x="-920.25"
       y="2578.8623"
       inkscape:export-xdpi="217.28999"
       inkscape:export-ydpi="217.28999" />
    <rect
       style="fill:#aa4400;fill-opacity:1;stroke:none;stroke-width:1;stroke-miterlimit:4;stroke-dasharray:none"
       id="rect4334-2-5-0"
       width="6.25"
       height="59.75"
       x="-940.25"
       y="2578.8623"
       inkscape:export-xdpi="217.28999"
       inkscape:export-ydpi="217.28999" />
    <rect
       style="fill:#aa4400;fill-opacity:1;stroke:none;stroke-width:1;stroke-miterlimit:4;stroke-dasharray:none"
       id="rect4334-2-3"
       width="11"
       height="59.75"
       x="-842.125"
       y="2578.8623"
       inkscape:export-xdpi="217.28999"
       inkscape:export-ydpi="217.28999" />
    <rect
       style="fill:#aa4400;fill-opacity:1;stroke:none;stroke-width:1;stroke-miterlimit:4;stroke-dasharray:none"
       id="rect4334-2-5-4"
       width="6.25"
       height="59.75"
       x="-860"
       y="2578.8623"
       inkscape:export-xdpi="217.28999"
       inkscape:export-ydpi="217.28999" />
    <rect
       style="fill:#aa4400;fill-opacity:1;stroke:none;stroke-width:1;stroke-miterlimit:4;stroke-dasharray:none"
       id="rect4334-2-5-0-4"
       width="6.25"
       height="59.75"
       x="-880"
       y="2578.8623"
       inkscape:export-xdpi="217.28999"
       inkscape:export-ydpi="217.28999" />
    <rect
       style="fill:#aa4400;fill-opacity:1;stroke:none;stroke-width:1;stroke-miterlimit:4;stroke-dasharray:none"
       id="rect4334-2-9"
       width="6.25"
       height="59.75"
       x="-780"
       y="2578.8623"
       inkscape:export-xdpi="217.28999"
       inkscape:export-ydpi="217.28999" />
    <rect
       style="fill:#aa4400;fill-opacity:1;stroke:none;stroke-width:1;stroke-miterlimit:4;stroke-dasharray:none"
       id="rect4334-2-5-1"
       width="6.25"
       height="59.75"
       x="-800"
       y="2578.8623"
       inkscape:export-xdpi="217.28999"
       inkscape:export-ydpi="217.28999" />
    <rect
       style="fill:#aa4400;fill-opacity:1;stroke:none;stroke-width:1;stroke-miterlimit:4;stroke-dasharray:none"
       id="rect4334-2-5-0-2"
       width="6.25"
       height="59.75"
       x="-820"
       y="2578.8623"
       inkscape:export-xdpi="217.28999"
       inkscape:export-ydpi="217.28999" />
    <rect
       style="fill:#aa4400;fill-opacity:1;stroke:none;stroke-width:1;stroke-miterlimit:4;stroke-dasharray:none"
       id="rect4334-2-3-0"
       width="6.25"
       height="59.75"
       x="-719.75"
       y="2578.8623"
       inkscape:export-xdpi="217.28999"
       inkscape:export-ydpi="217.28999" />
    <rect
       style="fill:#aa4400;fill-opacity:1;stroke:none;stroke-width:1;stroke-miterlimit:4;stroke-dasharray:none"
       id="rect4334-2-5-4-7"
       width="6.25"
       height="59.75"
       x="-739.75"
       y="2578.8623"
       inkscape:export-xdpi="217.28999"
       inkscape:export-ydpi="217.28999" />
    <rect
       style="fill:#aa4400;fill-opacity:1;stroke:none;stroke-width:1;stroke-miterlimit:4;stroke-dasharray:none"
       id="rect4334-2-5-0-4-1"
       width="6.25"
       height="59.75"
       x="-759.75"
       y="2578.8623"
       inkscape:export-xdpi="217.28999"
       inkscape:export-ydpi="217.28999" />
    <rect
       style="fill:#aa4400;fill-opacity:1;stroke:none;stroke-width:1;stroke-miterlimit:4;stroke-dasharray:none"
       id="rect4334-2-35"
       width="6.25"
       height="59.75"
       x="-660"
       y="2578.8623"
       inkscape:export-xdpi="217.28999"
       inkscape:export-ydpi="217.28999" />
    <rect
       style="fill:#aa4400;fill-opacity:1;stroke:none;stroke-width:1;stroke-miterlimit:4;stroke-dasharray:none"
       id="rect4334-2-5-5"
       width="6.25"
       height="59.75"
       x="-680"
       y="2578.8623"
       inkscape:export-xdpi="217.28999"
       inkscape:export-ydpi="217.28999" />
    <rect
       style="fill:#aa4400;fill-opacity:1;stroke:none;stroke-width:1;stroke-miterlimit:4;stroke-dasharray:none"
       id="rect4334-2-5-0-9"
       width="6.25"
       height="59.75"
       x="-700"
       y="2578.8623"
       inkscape:export-xdpi="217.28999"
       inkscape:export-ydpi="217.28999" />
    <rect
       style="fill:#aa4400;fill-opacity:1;stroke:none;stroke-width:1;stroke-miterlimit:4;stroke-dasharray:none"
       id="rect4334-2-3-5"
       width="6.25"
       height="59.75"
       x="-599.75"
       y="2578.8623"
       inkscape:export-xdpi="217.28999"
       inkscape:export-ydpi="217.28999" />
    <rect
       style="fill:#aa4400;fill-opacity:1;stroke:none;stroke-width:1;stroke-miterlimit:4;stroke-dasharray:none"
       id="rect4334-2-5-4-5"
       width="11"
       height="59.75"
       x="-621.69452"
       y="2578.8623"
       inkscape:export-xdpi="217.28999"
       inkscape:export-ydpi="217.28999" />
    <rect
       style="fill:#aa4400;fill-opacity:1;stroke:none;stroke-width:1;stroke-miterlimit:4;stroke-dasharray:none"
       id="rect4334-2-5-0-4-0"
       width="6.25"
       height="59.75"
       x="-639.75"
       y="2578.8623"
       inkscape:export-xdpi="217.28999"
       inkscape:export-ydpi="217.28999" />
    <rect
       style="fill:#aa4400;fill-opacity:1;stroke:none;stroke-width:1;stroke-miterlimit:4;stroke-dasharray:none"
       id="rect4334-2-9-3"
       width="6.25"
       height="59.75"
       x="-539.75"
       y="2578.8623"
       inkscape:export-xdpi="217.28999"
       inkscape:export-ydpi="217.28999" />
    <rect
       style="fill:#aa4400;fill-opacity:1;stroke:none;stroke-width:1;stroke-miterlimit:4;stroke-dasharray:none"
       id="rect4334-2-5-1-7"
       width="6.25"
       height="59.75"
       x="-559.75"
       y="2578.8623"
       inkscape:export-xdpi="217.28999"
       inkscape:export-ydpi="217.28999" />
    <rect
       style="fill:#aa4400;fill-opacity:1;stroke:none;stroke-width:1;stroke-miterlimit:4;stroke-dasharray:none"
       id="rect4334-2-5-0-2-8"
       width="6.25"
       height="59.75"
       x="-579.75"
       y="2578.8623"
       inkscape:export-xdpi="217.28999"
       inkscape:export-ydpi="217.28999" />
    <rect
       style="fill:#aa4400;fill-opacity:1;stroke:none;stroke-width:1;stroke-miterlimit:4;stroke-dasharray:none"
       id="rect4334-2-3-0-7"
       width="6.25"
       height="59.75"
       x="-479.50003"
       y="2578.8623"
       inkscape:export-xdpi="217.28999"
       inkscape:export-ydpi="217.28999" />
    <rect
       style="fill:#aa4400;fill-opacity:1;stroke:none;stroke-width:1;stroke-miterlimit:4;stroke-dasharray:none"
       id="rect4334-2-5-4-7-9"
       width="6.25"
       height="59.75"
       x="-499.50003"
       y="2578.8623"
       inkscape:export-xdpi="217.28999"
       inkscape:export-ydpi="217.28999" />
    <rect
       style="fill:#aa4400;fill-opacity:1;stroke:none;stroke-width:1;stroke-miterlimit:4;stroke-dasharray:none"
       id="rect4334-2-5-0-4-1-4"
       width="6.25"
       height="59.75"
       x="-519.5"
       y="2578.8623"
       inkscape:export-xdpi="217.28999"
       inkscape:export-ydpi="217.28999" />
    <rect
       style="fill:#aa4400;fill-opacity:1;stroke:none;stroke-width:1;stroke-miterlimit:4;stroke-dasharray:none"
       id="rect4334-2-98"
       width="6.25"
       height="59.75"
       x="-420"
       y="2578.8623"
       inkscape:export-xdpi="217.28999"
       inkscape:export-ydpi="217.28999" />
    <rect
       style="fill:#aa4400;fill-opacity:1;stroke:none;stroke-width:1;stroke-miterlimit:4;stroke-dasharray:none"
       id="rect4334-2-5-3"
       width="6.25"
       height="59.75"
       x="-440"
       y="2578.8623"
       inkscape:export-xdpi="217.28999"
       inkscape:export-ydpi="217.28999" />
    <rect
       style="fill:#aa4400;fill-opacity:1;stroke:none;stroke-width:1;stroke-miterlimit:4;stroke-dasharray:none"
       id="rect4334-2-5-0-0"
       width="6.25"
       height="59.75"
       x="-460"
       y="2578.8623"
       inkscape:export-xdpi="217.28999"
       inkscape:export-ydpi="217.28999" />
    <rect
       style="fill:#aa4400;fill-opacity:1;stroke:none;stroke-width:1;stroke-miterlimit:4;stroke-dasharray:none"
       id="rect4334-2-3-8"
       width="6.25"
       height="59.75"
       x="-359.75"
       y="2578.8623"
       inkscape:export-xdpi="217.28999"
       inkscape:export-ydpi="217.28999" />
    <rect
       style="fill:#aa4400;fill-opacity:1;stroke:none;stroke-width:1;stroke-miterlimit:4;stroke-dasharray:none"
       id="rect4334-2-5-4-53"
       width="6.25"
       height="59.75"
       x="-379.75"
       y="2578.8623"
       inkscape:export-xdpi="217.28999"
       inkscape:export-ydpi="217.28999" />
    <rect
       style="fill:#aa4400;fill-opacity:1;stroke:none;stroke-width:1;stroke-miterlimit:4;stroke-dasharray:none"
       id="rect4334-2-5-0-4-6"
       width="11"
       height="59.75"
       x="-401.5"
       y="2578.8623"
       inkscape:export-xdpi="217.28999"
       inkscape:export-ydpi="217.28999" />
    <rect
       style="fill:#aa4400;fill-opacity:1;stroke:none;stroke-width:1;stroke-miterlimit:4;stroke-dasharray:none"
       id="rect4334-2-9-37"
       width="6.25"
       height="59.75"
       x="-299.75"
       y="2578.8623"
       inkscape:export-xdpi="217.28999"
       inkscape:export-ydpi="217.28999" />
    <rect
       style="fill:#aa4400;fill-opacity:1;stroke:none;stroke-width:1;stroke-miterlimit:4;stroke-dasharray:none"
       id="rect4334-2-5-1-8"
       width="6.25"
       height="59.75"
       x="-319.75"
       y="2578.8623"
       inkscape:export-xdpi="217.28999"
       inkscape:export-ydpi="217.28999" />
    <rect
       style="fill:#aa4400;fill-opacity:1;stroke:none;stroke-width:1;stroke-miterlimit:4;stroke-dasharray:none"
       id="rect4334-2-5-0-2-6"
       width="6.25"
       height="59.75"
       x="-339.75"
       y="2578.8623"
       inkscape:export-xdpi="217.28999"
       inkscape:export-ydpi="217.28999" />
    <rect
       style="fill:#aa4400;fill-opacity:1;stroke:none;stroke-width:1;stroke-miterlimit:4;stroke-dasharray:none"
       id="rect4334-2-3-0-9"
       width="6.25"
       height="59.75"
       x="-239.5"
       y="2578.8623"
       inkscape:export-xdpi="217.28999"
       inkscape:export-ydpi="217.28999" />
    <rect
       style="fill:#aa4400;fill-opacity:1;stroke:none;stroke-width:1;stroke-miterlimit:4;stroke-dasharray:none"
       id="rect4334-2-5-4-7-6"
       width="6.25"
       height="59.75"
       x="-259.5"
       y="2578.8623"
       inkscape:export-xdpi="217.28999"
       inkscape:export-ydpi="217.28999" />
    <rect
       style="fill:#aa4400;fill-opacity:1;stroke:none;stroke-width:1;stroke-miterlimit:4;stroke-dasharray:none"
       id="rect4334-2-5-0-4-1-7"
       width="6.25"
       height="59.75"
       x="-279.5"
       y="2578.8623"
       inkscape:export-xdpi="217.28999"
       inkscape:export-ydpi="217.28999" />
    <rect
       style="fill:#aa4400;fill-opacity:1;stroke:none;stroke-width:1;stroke-miterlimit:4;stroke-dasharray:none"
       id="rect4334-2-35-6"
       width="11"
       height="59.75"
       x="-181.87132"
       y="2578.8623"
       inkscape:export-xdpi="217.28999"
       inkscape:export-ydpi="217.28999" />
    <rect
       style="fill:#aa4400;fill-opacity:1;stroke:none;stroke-width:1;stroke-miterlimit:4;stroke-dasharray:none"
       id="rect4334-2-5-5-0"
       width="6.25"
       height="59.75"
       x="-199.75"
       y="2578.8623"
       inkscape:export-xdpi="217.28999"
       inkscape:export-ydpi="217.28999" />
    <rect
       style="fill:#aa4400;fill-opacity:1;stroke:none;stroke-width:1;stroke-miterlimit:4;stroke-dasharray:none"
       id="rect4334-2-5-0-9-6"
       width="6.25"
       height="59.75"
       x="-219.75"
       y="2578.8623"
       inkscape:export-xdpi="217.28999"
       inkscape:export-ydpi="217.28999" />
    <rect
       style="fill:#aa4400;fill-opacity:1;stroke:none;stroke-width:1;stroke-miterlimit:4;stroke-dasharray:none"
       id="rect4334-2-3-5-8"
       width="6.25"
       height="59.75"
       x="-119.5"
       y="2578.8623"
       inkscape:export-xdpi="217.28999"
       inkscape:export-ydpi="217.28999" />
    <rect
       style="fill:#aa4400;fill-opacity:1;stroke:none;stroke-width:1;stroke-miterlimit:4;stroke-dasharray:none"
       id="rect4334-2-5-4-5-1"
       width="6.25"
       height="59.75"
       x="-139.5"
       y="2578.8623"
       inkscape:export-xdpi="217.28999"
       inkscape:export-ydpi="217.28999" />
    <rect
       style="fill:#aa4400;fill-opacity:1;stroke:none;stroke-width:1;stroke-miterlimit:4;stroke-dasharray:none"
       id="rect4334-2-5-0-4-0-7"
       width="6.25"
       height="59.75"
       x="-159.5"
       y="2578.8623"
       inkscape:export-xdpi="217.28999"
       inkscape:export-ydpi="217.28999" />
    <rect
       style="fill:#aa4400;fill-opacity:1;stroke:none;stroke-width:1;stroke-miterlimit:4;stroke-dasharray:none"
       id="rect4334-2-9-3-3"
       width="6.25"
       height="59.75"
       x="-59.500004"
       y="2578.8623"
       inkscape:export-xdpi="217.28999"
       inkscape:export-ydpi="217.28999" />
    <rect
       style="fill:#aa4400;fill-opacity:1;stroke:none;stroke-width:1;stroke-miterlimit:4;stroke-dasharray:none"
       id="rect4334-2-5-1-7-4"
       width="6.25"
       height="59.75"
       x="-79.5"
       y="2578.8623"
       inkscape:export-xdpi="217.28999"
       inkscape:export-ydpi="217.28999" />
    <rect
       style="fill:#aa4400;fill-opacity:1;stroke:none;stroke-width:1;stroke-miterlimit:4;stroke-dasharray:none"
       id="rect4334-2-5-0-2-8-6"
       width="6.25"
       height="59.75"
       x="-99.5"
       y="2578.8623"
       inkscape:export-xdpi="217.28999"
       inkscape:export-ydpi="217.28999" />
    <rect
       style="fill:#aa4400;fill-opacity:1;stroke:none;stroke-width:1;stroke-miterlimit:4;stroke-dasharray:none"
       id="rect4334-2-3-0-7-7"
       width="6.25"
       height="59.75"
       x="0.74996746"
       y="2578.8623"
       inkscape:export-xdpi="217.28999"
       inkscape:export-ydpi="217.28999" />
    <rect
       style="fill:#aa4400;fill-opacity:1;stroke:none;stroke-width:1;stroke-miterlimit:4;stroke-dasharray:none"
       id="rect4334-2-5-4-7-9-0"
       width="6.25"
       height="59.75"
       x="-19.250032"
       y="2578.8623"
       inkscape:export-xdpi="217.28999"
       inkscape:export-ydpi="217.28999" />
    <rect
       style="fill:#aa4400;fill-opacity:1;stroke:none;stroke-width:1;stroke-miterlimit:4;stroke-dasharray:none"
       id="rect4334-2-5-0-4-1-4-5"
       width="6.25"
       height="59.75"
       x="-39.250004"
       y="2578.8623"
       inkscape:export-xdpi="217.28999"
       inkscape:export-ydpi="217.28999" />
    <rect
       style="fill:#aa4400;fill-opacity:1;stroke:none;stroke-width:1;stroke-miterlimit:4;stroke-dasharray:none"
       id="rect4334-2-6"
       width="6.25"
       height="59.75"
       x="60"
       y="2578.8623"
       inkscape:export-xdpi="217.28999"
       inkscape:export-ydpi="217.28999" />
    <rect
       style="fill:#aa4400;fill-opacity:1;stroke:none;stroke-width:1;stroke-miterlimit:4;stroke-dasharray:none"
       id="rect4334-2-5-8"
       width="11"
       height="59.75"
       x="37.878681"
       y="2578.8623"
       inkscape:export-xdpi="217.28999"
       inkscape:export-ydpi="217.28999" />
    <rect
       style="fill:#aa4400;fill-opacity:1;stroke:none;stroke-width:1;stroke-miterlimit:4;stroke-dasharray:none"
       id="rect4334-2-5-0-7"
       width="6.25"
       height="59.75"
       x="20"
       y="2578.8623"
       inkscape:export-xdpi="217.28999"
       inkscape:export-ydpi="217.28999" />
    <rect
       style="fill:#aa4400;fill-opacity:1;stroke:none;stroke-width:1;stroke-miterlimit:4;stroke-dasharray:none"
       id="rect4334-2-3-58"
       width="6.25"
       height="59.75"
       x="120.25"
       y="2578.8623"
       inkscape:export-xdpi="217.28999"
       inkscape:export-ydpi="217.28999" />
    <rect
       style="fill:#aa4400;fill-opacity:1;stroke:none;stroke-width:1;stroke-miterlimit:4;stroke-dasharray:none"
       id="rect4334-2-5-4-2"
       width="6.25"
       height="59.75"
       x="100.25"
       y="2578.8623"
       inkscape:export-xdpi="217.28999"
       inkscape:export-ydpi="217.28999" />
    <rect
       style="fill:#aa4400;fill-opacity:1;stroke:none;stroke-width:1;stroke-miterlimit:4;stroke-dasharray:none"
       id="rect4334-2-5-0-4-5"
       width="6.25"
       height="59.75"
       x="80.25"
       y="2578.8623"
       inkscape:export-xdpi="217.28999"
       inkscape:export-ydpi="217.28999" />
    <rect
       style="fill:#aa4400;fill-opacity:1;stroke:none;stroke-width:1;stroke-miterlimit:4;stroke-dasharray:none"
       id="rect4334-2-9-34"
       width="6.25"
       height="59.75"
       x="180.25"
       y="2578.8623"
       inkscape:export-xdpi="217.28999"
       inkscape:export-ydpi="217.28999" />
    <rect
       style="fill:#aa4400;fill-opacity:1;stroke:none;stroke-width:1;stroke-miterlimit:4;stroke-dasharray:none"
       id="rect4334-2-5-1-70"
       width="6.25"
       height="59.75"
       x="160.25"
       y="2578.8623"
       inkscape:export-xdpi="217.28999"
       inkscape:export-ydpi="217.28999" />
    <rect
       style="fill:#aa4400;fill-opacity:1;stroke:none;stroke-width:1;stroke-miterlimit:4;stroke-dasharray:none"
       id="rect4334-2-5-0-2-9"
       width="6.25"
       height="59.75"
       x="140.25"
       y="2578.8623"
       inkscape:export-xdpi="217.28999"
       inkscape:export-ydpi="217.28999" />
    <rect
       style="fill:#aa4400;fill-opacity:1;stroke:none;stroke-width:1;stroke-miterlimit:4;stroke-dasharray:none"
       id="rect4334-2-3-0-3"
       width="6.25"
       height="59.75"
       x="240.49998"
       y="2578.8623"
       inkscape:export-xdpi="217.28999"
       inkscape:export-ydpi="217.28999" />
    <rect
       style="fill:#aa4400;fill-opacity:1;stroke:none;stroke-width:1;stroke-miterlimit:4;stroke-dasharray:none"
       id="rect4334-2-5-4-7-4"
       width="6.25"
       height="59.75"
       x="220.5"
       y="2578.8623"
       inkscape:export-xdpi="217.28999"
       inkscape:export-ydpi="217.28999" />
    <rect
       style="fill:#aa4400;fill-opacity:1;stroke:none;stroke-width:1;stroke-miterlimit:4;stroke-dasharray:none"
       id="rect4334-2-5-0-4-1-8"
       width="6.25"
       height="59.75"
       x="200.5"
       y="2578.8623"
       inkscape:export-xdpi="217.28999"
       inkscape:export-ydpi="217.28999" />
    <rect
       style="fill:#aa4400;fill-opacity:1;stroke:none;stroke-width:1;stroke-miterlimit:4;stroke-dasharray:none"
       id="rect4334-2-35-0"
       width="6.25"
       height="59.75"
       x="300.25"
       y="2578.8623"
       inkscape:export-xdpi="217.28999"
       inkscape:export-ydpi="217.28999" />
    <rect
       style="fill:#aa4400;fill-opacity:1;stroke:none;stroke-width:1;stroke-miterlimit:4;stroke-dasharray:none"
       id="rect4334-2-5-5-4"
       width="6.25"
       height="59.75"
       x="280.25"
       y="2578.8623"
       inkscape:export-xdpi="217.28999"
       inkscape:export-ydpi="217.28999" />
    <rect
       style="fill:#aa4400;fill-opacity:1;stroke:none;stroke-width:1;stroke-miterlimit:4;stroke-dasharray:none"
       id="rect4334-2-5-0-9-8"
       width="11"
       height="59.75"
       x="258.25"
       y="2578.8623"
       inkscape:export-xdpi="217.28999"
       inkscape:export-ydpi="217.28999" />
    <rect
       style="fill:#aa4400;fill-opacity:1;stroke:none;stroke-width:1;stroke-miterlimit:4;stroke-dasharray:none"
       id="rect4334-2-3-5-5"
       width="6.25"
       height="59.75"
       x="360.5"
       y="2578.8623"
       inkscape:export-xdpi="217.28999"
       inkscape:export-ydpi="217.28999" />
    <rect
       style="fill:#aa4400;fill-opacity:1;stroke:none;stroke-width:1;stroke-miterlimit:4;stroke-dasharray:none"
       id="rect4334-2-5-4-5-8"
       width="6.25"
       height="59.75"
       x="340.5"
       y="2578.8623"
       inkscape:export-xdpi="217.28999"
       inkscape:export-ydpi="217.28999" />
    <rect
       style="fill:#aa4400;fill-opacity:1;stroke:none;stroke-width:1;stroke-miterlimit:4;stroke-dasharray:none"
       id="rect4334-2-5-0-4-0-9"
       width="6.25"
       height="59.75"
       x="320.5"
       y="2578.8623"
       inkscape:export-xdpi="217.28999"
       inkscape:export-ydpi="217.28999" />
    <rect
       style="fill:#aa4400;fill-opacity:1;stroke:none;stroke-width:1;stroke-miterlimit:4;stroke-dasharray:none"
       id="rect4334-2-9-3-36"
       width="6.25"
       height="59.75"
       x="420.5"
       y="2578.8623"
       inkscape:export-xdpi="217.28999"
       inkscape:export-ydpi="217.28999" />
    <rect
       style="fill:#aa4400;fill-opacity:1;stroke:none;stroke-width:1;stroke-miterlimit:4;stroke-dasharray:none"
       id="rect4334-2-5-1-7-9"
       width="6.25"
       height="59.75"
       x="400.5"
       y="2578.8623"
       inkscape:export-xdpi="217.28999"
       inkscape:export-ydpi="217.28999" />
    <rect
       style="fill:#aa4400;fill-opacity:1;stroke:none;stroke-width:1;stroke-miterlimit:4;stroke-dasharray:none"
       id="rect4334-2-5-0-2-8-2"
       width="6.25"
       height="59.75"
       x="380.5"
       y="2578.8623"
       inkscape:export-xdpi="217.28999"
       inkscape:export-ydpi="217.28999" />
    <rect
       style="fill:#aa4400;fill-opacity:1;stroke:none;stroke-width:1;stroke-miterlimit:4;stroke-dasharray:none"
       id="rect4334-2-3-0-7-5"
       width="11"
       height="59.75"
       x="478.74997"
       y="2578.8623"
       inkscape:export-xdpi="217.28999"
       inkscape:export-ydpi="217.28999" />
    <rect
       style="fill:#aa4400;fill-opacity:1;stroke:none;stroke-width:1;stroke-miterlimit:4;stroke-dasharray:none"
       id="rect4334-2-5-4-7-9-03"
       width="6.25"
       height="59.75"
       x="460.74997"
       y="2578.8623"
       inkscape:export-xdpi="217.28999"
       inkscape:export-ydpi="217.28999" />
    <rect
       style="fill:#aa4400;fill-opacity:1;stroke:none;stroke-width:1;stroke-miterlimit:4;stroke-dasharray:none"
       id="rect4334-2-5-0-4-1-4-2"
       width="6.25"
       height="59.75"
       x="440.75"
       y="2578.8623"
       inkscape:export-xdpi="217.28999"
       inkscape:export-ydpi="217.28999" />
    <rect
       style="fill:#aa4400;fill-opacity:1;stroke:none;stroke-width:1;stroke-miterlimit:4;stroke-dasharray:none"
       id="rect4334-2-98-3"
       width="6.25"
       height="59.75"
       x="540.25"
       y="2578.8623"
       inkscape:export-xdpi="217.28999"
       inkscape:export-ydpi="217.28999" />
    <rect
       style="fill:#aa4400;fill-opacity:1;stroke:none;stroke-width:1;stroke-miterlimit:4;stroke-dasharray:none"
       id="rect4334-2-5-3-5"
       width="6.25"
       height="59.75"
       x="520.25"
       y="2578.8623"
       inkscape:export-xdpi="217.28999"
       inkscape:export-ydpi="217.28999" />
    <rect
       style="fill:#aa4400;fill-opacity:1;stroke:none;stroke-width:1;stroke-miterlimit:4;stroke-dasharray:none"
       id="rect4334-2-5-0-0-1"
       width="6.25"
       height="59.75"
       x="500.25"
       y="2578.8623"
       inkscape:export-xdpi="217.28999"
       inkscape:export-ydpi="217.28999" />
    <rect
       style="fill:#aa4400;fill-opacity:1;stroke:none;stroke-width:1;stroke-miterlimit:4;stroke-dasharray:none"
       id="rect4334-2-3-8-3"
       width="6.25"
       height="59.75"
       x="600.5"
       y="2578.8623"
       inkscape:export-xdpi="217.28999"
       inkscape:export-ydpi="217.28999" />
    <rect
       style="fill:#aa4400;fill-opacity:1;stroke:none;stroke-width:1;stroke-miterlimit:4;stroke-dasharray:none"
       id="rect4334-2-5-4-53-8"
       width="6.25"
       height="59.75"
       x="580.5"
       y="2578.8623"
       inkscape:export-xdpi="217.28999"
       inkscape:export-ydpi="217.28999" />
    <rect
       style="fill:#aa4400;fill-opacity:1;stroke:none;stroke-width:1;stroke-miterlimit:4;stroke-dasharray:none"
       id="rect4334-2-5-0-4-6-4"
       width="6.25"
       height="59.75"
       x="560.5"
       y="2578.8623"
       inkscape:export-xdpi="217.28999"
       inkscape:export-ydpi="217.28999" />
    <rect
       style="fill:#aa4400;fill-opacity:1;stroke:none;stroke-width:1;stroke-miterlimit:4;stroke-dasharray:none"
       id="rect4334-2-9-37-9"
       width="6.25"
       height="59.75"
       x="660.5"
       y="2578.8623"
       inkscape:export-xdpi="217.28999"
       inkscape:export-ydpi="217.28999" />
    <rect
       style="fill:#aa4400;fill-opacity:1;stroke:none;stroke-width:1;stroke-miterlimit:4;stroke-dasharray:none"
       id="rect4334-2-5-1-8-1"
       width="6.25"
       height="59.75"
       x="640.5"
       y="2578.8623"
       inkscape:export-xdpi="217.28999"
       inkscape:export-ydpi="217.28999" />
    <rect
       style="fill:#aa4400;fill-opacity:1;stroke:none;stroke-width:1;stroke-miterlimit:4;stroke-dasharray:none"
       id="rect4334-2-5-0-2-6-3"
       width="6.25"
       height="59.75"
       x="620.5"
       y="2578.8623"
       inkscape:export-xdpi="217.28999"
       inkscape:export-ydpi="217.28999" />
    <rect
       style="fill:#aa4400;fill-opacity:1;stroke:none;stroke-width:1;stroke-miterlimit:4;stroke-dasharray:none"
       id="rect4334-2-3-0-9-1"
       width="6.25"
       height="59.75"
       x="720.75"
       y="2578.8623"
       inkscape:export-xdpi="217.28999"
       inkscape:export-ydpi="217.28999" />
    <rect
       style="fill:#aa4400;fill-opacity:1;stroke:none;stroke-width:1;stroke-miterlimit:4;stroke-dasharray:none"
       id="rect4334-2-5-4-7-6-9"
       width="11"
       height="59.75"
       x="698.80548"
       y="2578.8623"
       inkscape:export-xdpi="217.28999"
       inkscape:export-ydpi="217.28999" />
    <rect
       style="fill:#aa4400;fill-opacity:1;stroke:none;stroke-width:1;stroke-miterlimit:4;stroke-dasharray:none"
       id="rect4334-2-5-0-4-1-7-9"
       width="6.25"
       height="59.75"
       x="680.75"
       y="2578.8623"
       inkscape:export-xdpi="217.28999"
       inkscape:export-ydpi="217.28999" />
    <rect
       style="fill:#aa4400;fill-opacity:1;stroke:none;stroke-width:1;stroke-miterlimit:4;stroke-dasharray:none"
       id="rect4334-2-35-6-8"
       width="6.25"
       height="59.75"
       x="780.5"
       y="2578.8623"
       inkscape:export-xdpi="217.28999"
       inkscape:export-ydpi="217.28999" />
    <rect
       style="fill:#aa4400;fill-opacity:1;stroke:none;stroke-width:1;stroke-miterlimit:4;stroke-dasharray:none"
       id="rect4334-2-5-5-0-5"
       width="6.25"
       height="59.75"
       x="760.5"
       y="2578.8623"
       inkscape:export-xdpi="217.28999"
       inkscape:export-ydpi="217.28999" />
    <rect
       style="fill:#aa4400;fill-opacity:1;stroke:none;stroke-width:1;stroke-miterlimit:4;stroke-dasharray:none"
       id="rect4334-2-5-0-9-6-8"
       width="6.25"
       height="59.75"
       x="740.5"
       y="2578.8623"
       inkscape:export-xdpi="217.28999"
       inkscape:export-ydpi="217.28999" />
    <rect
       style="fill:#aa4400;fill-opacity:1;stroke:none;stroke-width:1;stroke-miterlimit:4;stroke-dasharray:none"
       id="rect4334-2-5-0-4-0-7-7"
       width="6.25"
       height="59.75"
       x="800.75"
       y="2578.8623"
       inkscape:export-xdpi="217.28999"
       inkscape:export-ydpi="217.28999" />
    <rect
       style="fill:#aa4400;fill-opacity:1;stroke:none;stroke-width:1;stroke-miterlimit:4;stroke-dasharray:none"
       id="rect4750"
       width="8.485281"
       height="280.01428"
       x="-576.99915"
       y="2756.4895"
       inkscape:export-xdpi="217.28999"
       inkscape:export-ydpi="217.28999" />
    <rect
       style="fill:#aa4400;fill-opacity:1;stroke:none;stroke-width:1;stroke-miterlimit:4;stroke-dasharray:none"
       id="rect4752"
       width="32.75"
       height="9.25"
       x="-589"
       y="3034.3623"
       inkscape:export-xdpi="217.28999"
       inkscape:export-ydpi="217.28999" />
    <rect
       style="fill:#aa4400;fill-opacity:1;stroke:none;stroke-width:1;stroke-miterlimit:4;stroke-dasharray:none"
       id="rect4754"
       width="6.5"
       height="27"
       x="-589.00543"
       y="3042.6843"
       inkscape:export-xdpi="217.28999"
       inkscape:export-ydpi="217.28999" />
    <rect
       style="fill:#aa4400;fill-opacity:1;stroke:none;stroke-width:1;stroke-miterlimit:4;stroke-dasharray:none"
       id="rect4754-7"
       width="6.5"
       height="27"
       x="-576.02905"
       y="3042.6843"
       inkscape:export-xdpi="217.28999"
       inkscape:export-ydpi="217.28999" />
    <rect
       style="fill:#aa4400;fill-opacity:1;stroke:none;stroke-width:1;stroke-miterlimit:4;stroke-dasharray:none"
       id="rect4754-7-5"
       width="6.5"
       height="27"
       x="-562.75812"
       y="3042.6843"
       inkscape:export-xdpi="217.28999"
       inkscape:export-ydpi="217.28999" />
    <rect
       style="fill:#999999;fill-opacity:1;stroke:none;stroke-width:1;stroke-miterlimit:4;stroke-dasharray:none"
       id="rect4159-7"
       width="161.6244"
       height="161.6244"
       x="1511.1877"
       y="2723.55"
       inkscape:export-xdpi="55.684666"
       inkscape:export-ydpi="55.684666" />
    <ellipse
       style="fill:#ffffff;fill-opacity:1;stroke:none;stroke-width:1;stroke-miterlimit:4;stroke-dasharray:none"
       id="path4805"
       cx="1650.7407"
       cy="2767.4497"
       rx="12.374369"
       ry="24.748737" />
    <ellipse
       style="fill:#ffffff;fill-opacity:1;stroke:none;stroke-width:1;stroke-miterlimit:4;stroke-dasharray:none"
       id="path4805-0"
       cx="1623.8706"
       cy="2767.4497"
       rx="12.374369"
       ry="24.748737" />
    <ellipse
       style="fill:#1a1a1a;fill-opacity:1;stroke:none;stroke-width:1;stroke-miterlimit:4;stroke-dasharray:none"
       id="path4805-2"
       cx="1654.6298"
       cy="2777.7026"
       rx="5.6568542"
       ry="11.313708" />
    <ellipse
       style="fill:#1a1a1a;fill-opacity:1;stroke:none;stroke-width:1;stroke-miterlimit:4;stroke-dasharray:none"
       id="path4805-2-3"
       cx="1627.4061"
       cy="2777.7026"
       rx="5.6568542"
       ry="11.313708" />
    <path
       style="fill:none;fill-rule:evenodd;stroke:#000000;stroke-width:1px;stroke-linecap:butt;stroke-linejoin:miter;stroke-opacity:1"
       d="m 1626.75,2832.6122 c 9.5,-6.25 9.25,-4.25 14.75,0 5.5,4.25 6.25,0.75 11.25,-1.75"
       id="path4869"
       inkscape:connector-curvature="0" />
    <path
       style="fill:#1a1a1a;fill-opacity:1;stroke:none;stroke-width:1;stroke-miterlimit:4;stroke-dasharray:none"
       d="m 1576.5472,2897.3633 a 10.25,10.25 0 0 0 -10.25,10.25 10.25,10.25 0 0 0 0.047,0.9043 l -0.014,0 0,9.6777 32.2617,0 6.1875,0 0,-6.8203 -0.01,0 a 7,7 0 0 0 0.023,-0.4551 7,7 0 0 0 -4.5703,-6.5566 l -0.019,-0.01 a 7,7 0 0 0 -0.627,-0.1972 l -19.0234,-5.9805 a 10.25,10.25 0 0 0 -1.8692,-0.5859 l -0.1152,-0.037 0,0.01 a 10.25,10.25 0 0 0 -2.0273,-0.2012 z"
       id="path4871"
       inkscape:connector-curvature="0" />
    <ellipse
       style="fill:#ffffff;fill-opacity:1;stroke:none;stroke-width:1;stroke-miterlimit:4;stroke-dasharray:none"
       id="path4805-1"
       cx="1815.8717"
       cy="2767.4497"
       rx="12.374369"
       ry="24.748737"
       inkscape:export-xdpi="545.48279"
       inkscape:export-ydpi="545.48279" />
    <ellipse
       style="fill:#ffffff;fill-opacity:1;stroke:none;stroke-width:1;stroke-miterlimit:4;stroke-dasharray:none"
       id="path4805-0-4"
       cx="1716.5016"
       cy="2767.4497"
       rx="12.374369"
       ry="24.748737"
       inkscape:export-xdpi="55.684666"
       inkscape:export-ydpi="55.684666" />
    <ellipse
       style="fill:#1a1a1a;fill-opacity:1;stroke:none;stroke-width:1;stroke-miterlimit:4;stroke-dasharray:none"
       id="path4805-2-37"
       cx="1870.8717"
       cy="2777.7026"
       rx="5.6568542"
       ry="11.313708"
       inkscape:export-xdpi="556.84601"
       inkscape:export-ydpi="556.84601" />
    <ellipse
       style="fill:#1a1a1a;fill-opacity:1;stroke:none;stroke-width:1;stroke-miterlimit:4;stroke-dasharray:none"
       id="path4805-2-3-4"
       cx="1716.5016"
       cy="2777.7026"
       rx="5.6568542"
       ry="11.313708"
       inkscape:export-xdpi="55.684666"
       inkscape:export-ydpi="55.684666" />
    <path
       style="fill:none;fill-rule:evenodd;stroke:#000000;stroke-width:1px;stroke-linecap:butt;stroke-linejoin:miter;stroke-opacity:1"
       d="m 1715.8455,2832.6122 c 9.5,-6.25 9.25,-4.25 14.75,0 5.5,4.25 6.25,0.75 11.25,-1.75"
       id="path4869-2"
       inkscape:connector-curvature="0"
       inkscape:export-xdpi="530.02667"
       inkscape:export-ydpi="530.02667" />
    <path
       style="fill:#ffffff;fill-opacity:1;stroke:none;stroke-width:1;stroke-miterlimit:4;stroke-dasharray:none"
       d="m 1721.1505,2889.0548 a 10.25,10.25 0 0 0 -10.25,10.25 10.25,10.25 0 0 0 0.047,0.9043 l -0.014,0 0,9.6777 32.2617,0 6.1875,0 0,-6.8203 -0.01,0 a 7,7 0 0 0 0.023,-0.4551 7,7 0 0 0 -4.5703,-6.5566 l -0.019,-0.01 a 7,7 0 0 0 -0.627,-0.1972 l -19.0234,-5.9805 a 10.25,10.25 0 0 0 -1.8692,-0.5859 l -0.1152,-0.037 0,0.01 a 10.25,10.25 0 0 0 -2.0273,-0.2012 z"
       id="path4871-2-9"
       inkscape:connector-curvature="0"
       inkscape:export-xdpi="530.02667"
       inkscape:export-ydpi="530.02667" />
    <rect
       style="fill:#4d4d4d;fill-opacity:1;stroke:none;stroke-width:1;stroke-miterlimit:4;stroke-dasharray:none"
       id="rect4951"
       width="28.896969"
       height="282.84271"
       x="956.00836"
       y="2072.0103" />
    <ellipse
       style="fill:#000000;fill-opacity:1;stroke:none;stroke-width:1;stroke-miterlimit:4;stroke-dasharray:none"
       id="path4968"
       cx="1774.1309"
       cy="2832.2383"
       rx="12.727922"
       ry="3.9774756"
       inkscape:export-xdpi="530.02667"
       inkscape:export-ydpi="530.02667" />
    <ellipse
       style="fill:#000000;fill-opacity:1;stroke:none;stroke-width:1;stroke-miterlimit:4;stroke-dasharray:none"
       id="path4968-6"
       cx="1774.1309"
       cy="2847.6179"
       rx="12.727922"
       ry="2.032932" />
    <ellipse
       style="fill:#000000;fill-opacity:1;stroke:none;stroke-width:1;stroke-miterlimit:4;stroke-dasharray:none"
       id="path4968-6-0"
       cx="1774.1309"
       cy="2859.1968"
       rx="12.727922"
       ry="0.88388354" />
    <path
       style="fill:none;fill-rule:evenodd;stroke:#000000;stroke-width:1px;stroke-linecap:butt;stroke-linejoin:miter;stroke-opacity:1"
       d="m 1761.403,2870.5105 26.3398,0"
       id="path5000"
       inkscape:connector-curvature="0" />
    <ellipse
       style="fill:none;fill-opacity:1;stroke:#000000;stroke-width:1;stroke-miterlimit:4;stroke-dasharray:none"
       id="path4968-5"
       cx="1737.6265"
       cy="2870.5105"
       rx="12.727922"
       ry="3.9774756"
       inkscape:export-xdpi="530.02667"
       inkscape:export-ydpi="530.02667" />
    <circle
       style="fill:#666666;fill-opacity:1;stroke:none;stroke-width:1;stroke-miterlimit:4;stroke-dasharray:none"
       id="path5017"
       cx="1689.3665"
       cy="2855.7498"
       r="5.9220195"
       inkscape:export-xdpi="3785.27"
       inkscape:export-ydpi="3785.27" />
    <rect
       style="fill:#666666;fill-opacity:1;stroke:none;stroke-width:1;stroke-miterlimit:4;stroke-dasharray:none"
       id="rect5019"
       width="11.888232"
       height="15.512155"
       x="1683.4445"
       y="2855.9707"
       inkscape:export-xdpi="3785.27"
       inkscape:export-ydpi="3785.27" />
    <rect
       style="fill:#666666;fill-opacity:1;stroke:none;stroke-width:1;stroke-miterlimit:4;stroke-dasharray:none"
       id="rect5019-7"
       width="2.3776464"
       height="15.512155"
       x="1688.1997"
       y="2842.3589"
       inkscape:export-xdpi="3785.27"
       inkscape:export-ydpi="3785.27" />
    <rect
       style="fill:#ffccaa;fill-opacity:1;stroke:none;stroke-width:1;stroke-miterlimit:4;stroke-dasharray:none"
       id="rect5019-0"
       width="11.888232"
       height="10.429825"
       x="1683.4445"
       y="2855.9707"
       inkscape:export-xdpi="3785.27"
       inkscape:export-ydpi="3785.27" />
    <text
       xml:space="preserve"
       style="font-style:normal;font-weight:normal;font-size:6.03271198px;line-height:125%;font-family:sans-serif;letter-spacing:0px;word-spacing:0px;fill:#000000;fill-opacity:1;stroke:none;stroke-width:1px;stroke-linecap:butt;stroke-linejoin:miter;stroke-opacity:1"
       x="592.81934"
       y="3270.3911"
       id="text5051"
       sodipodi:linespacing="125%"
       transform="matrix(0.93856511,-0.34510221,0.34510221,0.93856511,0,0)"
       inkscape:export-xdpi="3785.27"
       inkscape:export-ydpi="3785.27"><tspan
         sodipodi:role="line"
         id="tspan5053"
         x="592.81934"
         y="3270.3911">xxx</tspan></text>
    <rect
       style="fill:#00ff00;fill-opacity:1;stroke:none;stroke-width:1;stroke-miterlimit:4;stroke-dasharray:none"
       id="rect5055"
       width="13.965359"
       height="13.965359"
       x="1705.0112"
       y="2792.9055"
       inkscape:export-xdpi="644.45001"
       inkscape:export-ydpi="644.45001" />
    <text
       xml:space="preserve"
       style="font-style:normal;font-weight:normal;font-size:14.16390705px;line-height:125%;font-family:sans-serif;letter-spacing:0px;word-spacing:0px;fill:#000000;fill-opacity:1;stroke:none;stroke-width:1px;stroke-linecap:butt;stroke-linejoin:miter;stroke-opacity:1"
       x="1707.9652"
       y="2803.8284"
       id="text5057"
       sodipodi:linespacing="125%"><tspan
         sodipodi:role="line"
         id="tspan5059"
         x="1707.9652"
         y="2803.8284">x</tspan></text>
  </g>
</svg>
